{"title":"From Dusk Till Dawn S03E01 1080p WEB-DL HEVC DD5.1 x265","uid":15660788,"size":713761847,"categoryP":"video","categoryS":"hd___tv_shows","magnet":"?xt=urn:btih:7bf00c310e73a923766b2da08c641c35ce5e97f8&amp;dn=From+Dusk+Till+Dawn+S03E01+1080p+WEB-DL+HEVC+DD5.1+x265&amp;tr=udp%3A%2F%2Ftracker.leechers-paradise.org%3A6969&amp;tr=udp%3A%2F%2Fzer0day.ch%3A1337&amp;tr=udp%3A%2F%2Fopen.demonii.com%3A1337&amp;tr=udp%3A%2F%2Ftracker.coppersurfer.tk%3A6969&amp;tr=udp%3A%2F%2Fexodus.desync.com%3A6969","seeders":1,"leechers":1,"uploader":"nayhtut","files":1,"time":1472177360,"description":"[Screenshots]\r\n \nhttps://s14.postimg.org/jkqtz5sgh/From_Dusk_Till_Dawn_S03_E01_1080p_WEB_DL_HEVC_DD5.jpg \nhttps://s14.postimg.org/4dauet0lt/From_Dusk_Till_Dawn_S03_E01_1080p_WEB_DL_HEVC_DD5.jpg \nhttps://s14.postimg.org/5tmcwy3ip/From_Dusk_Till_Dawn_S03_E01_1080p_WEB_DL_HEVC_DD5.jpg\r\n\r\n\r\nSource:  From Dusk Till Dawn S03E01 1080p WEB-DL DD5.1 H264-RARBG  (1.56 GB)\r\n\r\n\r\n__--__--__--__--__--__--__--__--__--__--__--__--__--\r\n\r\n\r\nComplete name                            : From.Dusk.Till.Dawn.S03E01.1080p.WEB-DL.HEVC.DD5.1.x265.mkv\r\nFormat                                   : Matroska\r\nFormat version                           : Version 4 / Version 2\r\nFile size                                : 681 MiB\r\nDuration                                 : 41mn 39s\r\nOverall bit rate                         : 2 284 Kbps\r\nWriting application                      : Lavf57.25.100\r\nWriting library                          : Lavf57.25.100\r\n\r\nVideo\r\n\r\nID                                       : 1\r\nFormat                                   : V_MPEGH/ISO/HEVC\r\nCodec ID                                 : V_MPEGH/ISO/HEVC\r\nDuration                                 : 41mn 39s\r\nBit rate                                 : 1 855 Kbps\r\nWidth                                    : 1 912 pixels\r\nHeight                                   : 1 072 pixels\r\nDisplay aspect ratio                     : 16:9\r\nFrame rate                               : 25.000 fps\r\nBits/(Pixel*Frame)                       : 0.036\r\nStream size                              : 553 MiB (81%)\r\nWriting library                          : Lavc57.48.101 libx265\r\nLanguage                                 : English\r\nDefault                                  : Yes\r\nForced                                   : No\r\nDURATION                                 : 00:41:39.651000000\r\n\r\nAudio\r\n\r\nID                                       : 2\r\nFormat                                   : AC-3\r\nFormat/Info                              : Audio Coding 3\r\nMode extension                           : CM (complete main)\r\nFormat settings, Endianness              : Big\r\nCodec ID                                 : A_AC3\r\nDuration                                 : 41mn 39s\r\nBit rate mode                            : Constant\r\nBit rate                                 : 384 Kbps\r\nChannel(s)                               : 6 channels\r\nChannel positions                        : Front: L C R, Side: L R, LFE\r\nSampling rate                            : 48.0 KHz\r\nBit depth                                : 16 bits\r\nCompression mode                         : Lossy\r\nStream size                              : 114 MiB (17%)\r\nWriting library                          : Lavc57.24.102 ac3\r\nLanguage                                 : English\r\nDefault                                  : Yes\r\nForced                                   : No\r\nDURATION                                 : 00:41:39.615000000\r\n\r\nText\r\n\r\nID                                       : 3\r\nFormat                                   : ASS\r\nCodec ID                                 : S_TEXT/ASS\r\nCodec ID/Info                            : Advanced Sub Station Alpha\r\nCompression mode                         : Lossless\r\nWriting library                          : Lavc57.48.101 ssa\r\nLanguage                                 : English\r\nDefault                                  : Yes\r\nForced                                   : No\r\nDURATION                                 : 00:40:41.188000000\r\n\r\n__--__--__--__--__--__--__--__--__--__--__--__--__--\r\n\r\n\r\nEnjoy!","torrent":{"xt":"urn:btih:7bf00c310e73a923766b2da08c641c35ce5e97f8","amp;dn":"From+Dusk+Till+Dawn+S03E01+1080p+WEB-DL+HEVC+DD5.1+x265","amp;tr":["udp%3A%2F%2Ftracker.leechers-paradise.org%3A6969","udp%3A%2F%2Fzer0day.ch%3A1337","udp%3A%2F%2Fopen.demonii.com%3A1337","udp%3A%2F%2Ftracker.coppersurfer.tk%3A6969","udp%3A%2F%2Fexodus.desync.com%3A6969"],"infoHash":"7bf00c310e73a923766b2da08c641c35ce5e97f8","infoHashBuffer":{"type":"Buffer","data":[123,240,12,49,14,115,169,35,118,107,45,160,140,100,28,53,206,94,151,248]},"announce":[],"urlList":[]}}